<svg xmlns="http://www.w3.org/2000/svg" width="920" height="560" viewBox="0 0 920 560" fill="none">
  <rect width="920" height="560" fill="#0c0e0d"/>
  <rect x="34" y="34" width="852" height="492" fill="#141715" stroke="#262b27"/>
  <rect x="72" y="76" width="776" height="244" fill="#161916"/>
  <rect x="72" y="76" width="360" height="244" fill="#0fae66"/>
  <path d="M432 76h416v244H432z" fill="#1f231f"/>
  <rect x="108" y="112" width="206" height="20" rx="10" fill="#0c0e0d"/>
  <rect x="108" y="154" width="250" height="58" rx="4" fill="#0c0e0d"/>
  <rect x="108" y="238" width="134" height="36" rx="2" fill="#0c0e0d"/>
  <rect x="488" y="116" width="288" height="148" fill="#141715" stroke="#1f5b40"/>
  <path d="M516 238h232l-70-78-46 48-32-34-84 64z" fill="#1fd97e"/>
  <rect x="72" y="360" width="220" height="104" fill="#1c201d" stroke="#262b27"/>
  <rect x="350" y="360" width="220" height="104" fill="#1c201d" stroke="#262b27"/>
  <rect x="628" y="360" width="220" height="104" fill="#1c201d" stroke="#262b27"/>
  <g fill="#8b9590">
    <rect x="98" y="394" width="148" height="10" rx="5"/>
    <rect x="376" y="394" width="148" height="10" rx="5"/>
    <rect x="654" y="394" width="148" height="10" rx="5"/>
  </g>
  <text x="74" y="506" fill="#1fd97e" font-family="Arial, sans-serif" font-size="28" font-weight="700">Interior Studio</text>
</svg>
