<svg xmlns="http://www.w3.org/2000/svg" width="920" height="560" viewBox="0 0 920 560" fill="none">
  <rect width="920" height="560" fill="#0c0e0d"/>
  <rect x="36" y="36" width="848" height="488" rx="18" fill="#141715" stroke="#262b27"/>
  <rect x="76" y="78" width="170" height="404" rx="12" fill="#1c201d" stroke="#262b27"/>
  <rect x="274" y="78" width="570" height="122" rx="12" fill="#1c201d" stroke="#262b27"/>
  <rect x="274" y="228" width="268" height="254" rx="12" fill="#1c201d" stroke="#262b27"/>
  <rect x="576" y="228" width="268" height="254" rx="12" fill="#1c201d" stroke="#262b27"/>
  <g fill="#0fae66">
    <rect x="104" y="112" width="86" height="10" rx="5"/>
    <rect x="104" y="166" width="112" height="8" rx="4"/>
    <rect x="104" y="206" width="92" height="8" rx="4"/>
    <rect x="104" y="246" width="120" height="8" rx="4"/>
  </g>
  <g fill="#8b9590">
    <rect x="314" y="116" width="176" height="16" rx="8"/>
    <rect x="314" y="150" width="384" height="10" rx="5"/>
    <rect x="314" y="280" width="158" height="14" rx="7"/>
    <rect x="314" y="318" width="188" height="9" rx="4.5"/>
    <rect x="616" y="280" width="166" height="14" rx="7"/>
    <rect x="616" y="318" width="172" height="9" rx="4.5"/>
  </g>
  <path d="M652 384c-44 0-74-18-96-45 36 8 70 8 101 0 34-9 63-27 87-53 2 35-9 62-31 80-16 12-36 18-61 18z" fill="#0fae66"/>
  <path d="M348 388h130" stroke="#1fd97e" stroke-width="8" stroke-linecap="round"/>
  <path d="M348 424h86" stroke="#123a28" stroke-width="8" stroke-linecap="round"/>
  <text x="76" y="518" fill="#1fd97e" font-family="Arial, sans-serif" font-size="28" font-weight="700">Ship Management Suite</text>
</svg>
