<svg xmlns="http://www.w3.org/2000/svg" width="920" height="560" viewBox="0 0 920 560" fill="none">
  <rect width="920" height="560" fill="#080808"/>
  <rect x="36" y="36" width="848" height="488" rx="18" fill="#0F0F0F" stroke="#2A2927"/>
  <rect x="74" y="80" width="772" height="74" rx="12" fill="#161616" stroke="#2A2927"/>
  <rect x="74" y="186" width="230" height="136" rx="12" fill="#161616" stroke="#2A2927"/>
  <rect x="344" y="186" width="230" height="136" rx="12" fill="#161616" stroke="#2A2927"/>
  <rect x="614" y="186" width="230" height="136" rx="12" fill="#161616" stroke="#2A2927"/>
  <rect x="74" y="354" width="230" height="112" rx="12" fill="#161616" stroke="#2A2927"/>
  <rect x="344" y="354" width="230" height="112" rx="12" fill="#161616" stroke="#2A2927"/>
  <rect x="614" y="354" width="230" height="112" rx="12" fill="#161616" stroke="#2A2927"/>
  <rect x="108" y="112" width="186" height="14" rx="7" fill="#F0EDE6"/>
  <rect x="682" y="106" width="116" height="26" rx="13" fill="#C9A96E"/>
  <g fill="#8F8982">
    <rect x="108" y="230" width="112" height="12" rx="6"/>
    <rect x="108" y="262" width="152" height="8" rx="4"/>
    <rect x="378" y="230" width="118" height="12" rx="6"/>
    <rect x="378" y="262" width="154" height="8" rx="4"/>
    <rect x="648" y="230" width="126" height="12" rx="6"/>
    <rect x="648" y="262" width="146" height="8" rx="4"/>
  </g>
  <g stroke="#E8D5A3" stroke-width="4">
    <rect x="112" y="388" width="54" height="42" rx="8"/>
    <circle cx="452" cy="410" r="24"/>
    <path d="M660 431l34-48 34 48h-68z"/>
  </g>
  <g fill="#C9A96E">
    <rect x="190" y="396" width="72" height="12" rx="6"/>
    <rect x="490" y="396" width="46" height="28" rx="14"/>
    <rect x="754" y="400" width="56" height="20" rx="10"/>
  </g>
  <text x="74" y="518" fill="#E8D5A3" font-family="Arial, sans-serif" font-size="28" font-weight="700">Shared Component Library</text>
</svg>
